<svg xmlns="http://www.w3.org/2000/svg" viewBox="0 0 64 64" role="img" aria-label="CFTL">
  <rect width="64" height="64" rx="18" fill="#ffffff"/>
  <circle cx="32" cy="32" r="29" fill="#f4f7fb"/>
  <g transform="translate(7 9) scale(0.58)">
    <path fill="#3f4966" d="m86.8,20.85C74.95,4.66,51.71.89,33.37,6.51c-6.72,2.12-12.74,5.45-17.68,10.56-.16.16-.29.31-.56.3-3.5-.09-6.81.66-10.05,2.34,15.29-26.49,67.76-26.45,81.71,1.13Z"/>
    <path fill="#df041d" d="m79.67,48.7c-19.96,17.08-56.07,19.43-74.24-1.26,5.8,11.51,20.78,16.63,33.19,17.96h-.03c13.05,1.57,29.74-1.22,41.36-8.41,0,0,0,0,0,0,3.67-2.38,7.31-5,9.86-8.61-3.45.1-6.8.21-10.15.3Z"/>
    <path fill="#404b67" d="m41.97,21.69c-.03-.5-.23-.59-.67-.58-2.87.02-5.75,0-8.62,0h0c-3.02,0-6.03-.02-9.05,0-.11,0-.2.05-.2.18.04.37.68.22.95.33,1.52.24,2.49,1.24,2.63,2.77.28,4.69.06,9.41.12,14.11-.02,2.63.08,5.43-3.28,5.7-.15.03-.43-.09-.42.22.01.3.27.19.43.19,3.48,0,6.97,0,10.45,0,.14,0,.35.11.39-.15.03-.25-.18-.22-.33-.25-1.88-.15-3.21-1.16-3.29-3.09-.17-2.79-.04-5.58-.07-8.37,0-.2,0-.37.27-.37,3.28-.1,5.83,1,6.13,4.58.03.21-.04.5.32.47.33-.03.19-.31.19-.49.04-3.12.08-6.23.1-9.35,0-.2.18-.55-.23-.57-.37-.01-.23.32-.25.51-.2,3.26-3.19,4.4-6.09,4.28-.41.02-.46-.15-.46-.49,0-3.06,0-6.11,0-9.17,0-.36.09-.5.48-.5,3.4.05,7.59-.43,9.55,3.01.34.55.6,1.15.81,1.77.06.18.09.43.4.35.29-.08.14-.29.13-.45-.13-1.54-.29-3.08-.4-4.62Z"/>
  </g>
</svg>
